<svg version="1.1" xmlns="http://www.w3.org/2000/svg" width="682.667" height="682.667" viewBox="0 0 512.000000 512.000000"><path d="M150.8 2.5c-.2.1-3.9.5-8.3.8-9.8.7-11.5 1.1-20.7 4.3-4 1.4-7.7 2.6-8.3 2.8-.5.1-2.1.8-3.5 1.6s-3.2 1.5-4 1.6c-.8.2-1.6.8-1.8 1.4-.2.5-.7.8-1.2.5-.4-.3-1.3.2-2 1S98.9 18 97.8 18c-1 0-2.1.7-2.4 1.5-.4.8-1.2 1.5-2 1.5s-1.4.4-1.4 1c0 .5-.6 1-1.4 1-1.4 0-22.7 21.9-22.6 23.2 0 .5-.8 1.6-1.7 2.6-1 1-2.5 2.9-3.3 4.2-.8 1.2-2.1 2.8-2.7 3.6-.7.7-1.3 1.7-1.3 2.3 0 .6-.4 1.1-1 1.1-.5 0-1 .6-1 1.3 0 .7-1.3 3.1-3 5.3-1.6 2.1-3 4.3-3 4.8s-.6 1.7-1.3 2.5c-.7.9-2.5 4.3-4 7.7-1.5 3.3-3.9 8.7-5.4 12-1.4 3.2-2.7 6.2-2.9 6.6-.1.5-.3 1-.4 1.3-.1.3-.4.9-.5 1.5-.1.5-.3 1.1-.5 1.2-.1.2-.3 1-.6 1.8-.2.8-1.1 4-2 7-2.3 7.9-4.6 18.1-4.7 20.7-.1 1.3-.3 2.3-.6 2.3-.4 0-.6 1.2-.7 2.7-.3 8.7-1.2 18.2-1.8 19.2-.4.6-.3 1.1.2 1.1.6 0 .7 1.4.3 3.2-.5 2.8-.6 25.2-.1 26.8.1.3.3 4.8.5 10s.7 12.4 1 16c.4 3.6.8 8.9.9 11.7 0 2.9.3 5.3.6 5.3s.5 1.2.4 2.7c-.1 1.6.1 3.2.4 3.7.3.5.7 3 .9 5.5.2 2.5.6 5.7.9 7.1.2 1.4.7 4.3 1 6.5.3 2.2 1.2 7.3 1.9 11.3.8 4.1 1.4 7.7 1.3 8-.1.4.1 1.4.4 2.2.3.8 1.3 5.1 2.3 9.5.9 4.4 1.8 8.7 2 9.5.7 3.3 4.8 17.6 5.6 19.7.5 1.3 1.3 3.3 1.8 4.5.5 1.3 2 5 3.2 8.3 1.3 3.3 3.1 7.1 4 8.5.9 1.4 2.2 4.2 3 6.3.7 2 1.6 3.7 2 3.7.6 0 2.3 5.8 2 7.3 0 .4.3.7.7.7.5 0 .9.6 1 1.2 0 .7.4 2.9.8 4.8s.7 4.4.8 5.5c.1 1.1.6 2.3 1.1 2.7.6.5.6.8-.2.8-.6 0-1 .8-.9 1.7.2.9-.1 3.7-.6 6.2s-1.1 5.7-1.3 7.1c-.8 5.5-1.4 8.6-2.4 11.9-.6 1.9-.8 3.8-.5 4.2.3.5.1.9-.4.9-.6 0-1.3 1.6-1.7 3.6-.3 2-1.5 5.3-2.6 7.3-1 2-1.9 4.1-1.9 4.8 0 .7-.4 1.3-.9 1.3s-1.2 1-1.6 2.2c-1 3-.8 2.6-3.2 7.8-2.6 5.6-9.3 22.3-9.3 23.2 0 .4-.5 1.9-1.2 3.5-1.4 3.4-1.3 3.1-2.2 6.8-.4 1.6-1.1 3.9-1.6 5-1.2 2.9-3.1 12.7-3.5 18.2-.2 2.7-.5 5-.6 5.3-.2.6-.2.5.4 6.2.3 2.5 1.1 5.7 1.8 6.9 3 5.6.6 5.4 50.1 5.7 44 .3 45.8.2 47.8-1.6 1.2-1.1 2.3-3.1 2.5-4.6.3-1.4.7-3.8 1-5.4 1-5.5.4-30.6-.9-40-.3-2.1-.8-6-1.1-8.7-.4-2.8-.8-6.1-1-7.5-.5-2.7-1.4-10.2-1.8-13.5-.3-2.5.9-2.4 9.6.9 3.7 1.4 6.7 2.2 6.7 1.9 0-.3.6-.1 1.3.5.6.5 2.8 1.3 4.7 1.8 1.9.4 4 .9 4.5 1 .6.2 2 .5 3.3.8 1.2.3 2.5.7 3 .9.4.3 2.3.8 4.2 1.1 1.9.3 4.6.8 6 1.1 1.4.3 4.1.7 6 1 1.9.3 4.6.7 6 1 1.4.3 4.2.6 6.3.6 2 .1 3.7.4 3.7.8 0 .3 4.4.6 9.8.6 5.3 0 10.3.4 11 .8.6.5 1.2.6 1.2.1s4.8-1 10.8-1c5.9-.1 12.8-.5 15.5-.9 2.6-.4 6.2-.8 8-1 1.7-.2 4.6-.6 6.2-1 1.7-.3 4.1-.8 5.5-1 7.8-1.6 7.3-1.8 6.7 2.3-.7 5.4-1.1 6.6-2.2 7.4-.5.4-1 1.1-1.1 1.5 0 .4-1 2.8-2.1 5.3-6.9 15-8.1 18-7.5 18 .4 0 .2.4-.3.8-.9.6-2.2 3.8-4.1 10.7-2.8 9.7-3.3 17.1-1.3 20.3 3.1 5 2.9 5 56.1 5.1 48.3.2 49.8.1 51.7-1.8 1.1-1.1 2.3-3.9 2.7-6.3 1.2-6.8.7-43.8-.6-43.8-.3 0-.5-2.1-.5-4.8 0-2.6-.2-5.2-.4-5.7-.3-.6-.6-1.7-.8-2.5-.5-3.3-1.5-11.6-1.7-14-.1-1.4-.6-3.1-1-3.8-.4-.7-.2-1.2.4-1.2 1.9 0 6.2 3.3 10.5 7.9 2.2 2.4 4.6 5 5.3 5.7.6.7 1.2 1.5 1.2 1.7 0 .8 5.3 6.5 20 21.7 12.5 12.8 30.7 28 33.7 28 .7 0 1.3.4 1.3 1 0 .5.6 1 1.4 1 .7 0 2.5.9 4 2.1 1.4 1.1 2.6 1.7 2.6 1.3 0-.4.9.1 2 1.1s2 1.5 2 1.1c0-.4 1.2 0 2.8.8 3.6 2.1 8.5 4 9.6 3.7.4-.1 1.3.2 2 .7 1 .9 4.8 2 9.1 2.7 1.1.2 4.8.9 8.2 1.5 6.1 1 21.1 1.5 24.5.8 3.8-.9 7.6-4.7 7.4-7.2-.6-4.7-4.5-7.5-11.6-8.2-8.8-.7-22-5.3-22-7.6 0-.5-.6-.8-1.4-.8-2.2 0-23.6-22.1-23.6-24.4 0-.3-1.8-3.2-4-6.3-2.2-3.2-4-6.4-4-7.1 0-.6-.4-1.2-.8-1.2-.7 0-2.5-3.1-8.8-15-1.1-1.9-2.2-3.7-2.5-4-.3-.3-1.7-2.8-3.1-5.5-1.3-2.8-4.2-8.4-6.3-12.5-2.1-4.1-4-7.7-4-8-.3-1.1-3-6.5-3.5-7-.5-.4-8-15.8-8.3-17-.1-.3-2-3.9-4.2-8s-4.9-9.4-5.9-11.8c-1-2.3-2.3-4.2-2.8-4.2-.4 0-.8-.6-.8-1.4 0-1.2-5.6-11.6-9.9-18.6-.8-1.4-1.4-2.8-1.3-3.3.1-.4-.2-.7-.7-.7-.5 0-1.4-1.3-2.1-3-.7-1.6-1.5-3-1.9-3-.3 0-1.3-1.5-2-3.2-.8-1.8-2.3-4.1-3.3-5-1.1-.9-2-2-2-2.5-.1-1.7-2.2-5.3-3-5.3-.4 0-.8-.5-.8-1.2 0-.6-.7-1.8-1.5-2.7-2.3-2.4-8.5-10.5-8.5-11.2 0-.7-17.7-18.9-18.4-18.9-.3 0-1.8-1.2-3.3-2.6-5.6-5.1-11.3-9-11.3-7.7 0 .5-.4.3-.8-.3-2.5-3.6-26.4-12.3-43.2-15.8-1.4-.3-3.4-.7-4.5-.9-5.8-1.3-17.3-3.1-19.2-3-1.3 0-2.3-.3-2.3-.6 0-.6-2.3-.7-16.8-1.2-3.4-.1-6.5-.6-6.8-1-.3-.5-1-.6-1.6-.3-.5.4-9.2.8-19.2 1-19.5.3-33.3 1.1-34.7 2-.5.3-.9 0-.9-.6 0-.7-.6-.8-1.7-.2-3.9 1.9-47.3 2.1-47.3.3 0-.3-1.4-.7-3-.8-3.9-.3-12.6-4.6-16.4-8.1-3.9-3.6-10.3-13.6-11.7-18.1-4.4-14.7-5.2-20.6-5.2-36.1 0-12.4.5-20.7 1.4-25 .4-1.9 1-5.4 1.3-7.7 1.4-10.8 8.3-32.5 13.1-41.1 1.3-2.3 1.8-4 1.2-3.6-.7.3-.4-.1.6-.9.9-.8 1.7-1.9 1.7-2.6 0-.6.5-1.1 1.1-1.1.5 0 .8-.4.5-.9-.4-.5 2.4-4 6.1-7.8 6.8-6.9 13.9-11.2 21.3-12.8 1.9-.4 3.9-1 4.5-1.3 1.8-1.1 6.9-1.2 41.5-1.3 31.7-.1 35-.2 40.4-2.1 8.8-2.9 12.6-8.7 11.9-18.3-.4-6.3-.6-7.5-2-10-.6-1.1-1.1-2.4-1.1-2.8-.1-1.2-4.5-10.1-5.6-11.3-.6-.6-3.1-3.6-5.6-6.6-8.4-10.2-19.9-17.4-29.7-18.4-2.6-.3-5.4-.7-6.1-1-2-.6-25.9-2.3-26.4-1.9z"/></svg>